<?xml version="1.0" encoding="UTF-8"?>
<svg id="Layer_1" xmlns="http://www.w3.org/2000/svg" xmlns:xlink="http://www.w3.org/1999/xlink" version="1.1" viewBox="0 0 512 512">
  <!-- Generator: Adobe Illustrator 29.0.0, SVG Export Plug-In . SVG Version: 2.1.0 Build 186)  -->
  <defs>
    <style>
      .st0 {
        fill: #030303;
      }

      .st1 {
        font-size: 59.3px;
        stroke-width: 4px;
      }

      .st1, .st2, .st3, .st4, .st5, .st6, .st7, .st8, .st9 {
        stroke-miterlimit: 10;
      }

      .st1, .st2, .st3, .st4, .st5, .st6, .st7, .st9 {
        stroke: #231f20;
      }

      .st1, .st2, .st5, .st6, .st8 {
        fill: #231f20;
      }

      .st1, .st2, .st6 {
        font-family: BasicSans-Regular, 'Basic Sans';
      }

      .st2 {
        font-size: 82.3px;
      }

      .st3, .st10, .st4 {
        fill: #f5f5f7;
      }

      .st4 {
        stroke-width: 13px;
      }

      .st6 {
        font-size: 420.6px;
      }

      .st7 {
        fill: none;
        stroke-width: 27px;
      }

      .st8 {
        stroke: #6d6e71;
        stroke-width: 2px;
      }
    </style>
  </defs>
  <rect class="st5" x="1255.9" y="-995.2" width="53.6" height="53.6"/>
  <path class="st10" d="M102.4-640.7V-184.7h-372.3v-369.2h78.3c3.5,0,10.1-10.2,10.1-13.2v-73.7H102.4Z"/>
  <text class="st2" transform="translate(916.3 383.1)"><tspan x="0" y="0">Resume.</tspan></text>
  <path class="st0" d="M1055.4-385.2l375.8-.9,14.5,4.7-1.6,528.6-502.8-1.6-3.1-12.9.3-408.4c2.3-12.2,54.3-52.5,66.9-63.8,11.3-10.2,38.1-42.9,50.1-45.6Z"/>
  <path class="st10" d="M2316.5-1556.9c0,159.5,0,319,0,478.5-153.1,0-306.1,0-459.2,0,0,0,0-328.7,0-355.9,0-2.8.1-5.9,2.1-7.8,1.9-1.9,4.8-2.1,7.4-2.1,37.3-1.1,74.6-2.3,111.9-3.4,0-36.4-.1-72.9-.2-109.3,112.7,0,225.3,0,338,0Z"/>
  <path class="st10" d="M1059.4-347.5c0,24.5.2,48.9.3,73.4,0,.2-73.6.2-79.9-1.1,17.5-28.3,53.4-52.9,79.6-73.1,0,.3,0,.6,0,.9Z"/>
  <polygon class="st9" points="1406.3 -754.6 1406.3 -796.4 1385.7 -796.4 1364.5 -775.2 1364.5 -754.6 1406.3 -754.6"/>
  <g>
    <polyline class="st7" points="40.7 441.4 427.8 441.4 427.8 54.3"/>
    <polygon class="st4" points="413.1 425.9 413.1 38.8 26 425.9 413.1 425.9"/>
  </g>
  <text class="st6" transform="translate(1807.4 -680.6)"><tspan x="0" y="0">.</tspan></text>
  <line class="st8" x1="774.9" y1="-1044.2" x2="952.8" y2="-1044.2"/>
  <line class="st8" x1="37.9" y1="-794.1" x2="426.7" y2="-794.1"/>
  <line class="st8" x1="250.3" y1="-591" x2="639.1" y2="-591"/>
  <line class="st8" x1="298.4" y1="-532.5" x2="687.2" y2="-532.5"/>
  <line class="st8" x1="278.4" y1="-311.2" x2="667.2" y2="-311.2"/>
  <g id="PPJaIl">
    <image id="PPJaIl1" data-name="PPJaIl" width="566" height="800" transform="translate(1699.4 -926.9) scale(.6)" xlink:href="Webicon-1.png"/>
  </g>
  <g>
    <polygon class="st9" points="504.6 -2273.5 490 -2258.9 544.3 -2258.9 844.3 -2258.9 844.3 -1848.6 434 -1848.6 434 -2148.6 434 -2202.9 419.4 -2188.3 419.4 -1834.1 858.9 -1834.1 858.9 -2273.5 504.6 -2273.5"/>
    <polygon class="st3" points="434 -2148.6 434 -1848.6 844.3 -1848.6 844.3 -2258.9 544.3 -2258.9 544.3 -2148.6 434 -2148.6"/>
    <polygon class="st9" points="544.3 -2148.6 544.3 -2258.9 490 -2258.9 434 -2202.9 434 -2148.6 544.3 -2148.6"/>
    <polygon class="st3" points="525.5 -2167.4 525.5 -2258.9 434 -2167.4 525.5 -2167.4"/>
    <text class="st1" transform="translate(551 -2209.3)"><tspan x="0" y="0">Resume.</tspan></text>
  </g>
  <text class="st1" transform="translate(1434.4 -877.8)"><tspan x="0" y="0">Resume.</tspan></text>
  <text class="st6" transform="translate(595.2 -311.2)"><tspan x="0" y="0">.</tspan></text>
</svg>